<?xml version="1.0" encoding="UTF-8"?>
<svg width="136px" height="121px" viewBox="0 0 136 121" version="1.1" xmlns="http://www.w3.org/2000/svg" xmlns:xlink="http://www.w3.org/1999/xlink">
    <title>E6BD0FDA-D43A-450B-A724-E21FE74BEB1E</title>
    <defs>
        <linearGradient x1="0.00964391691%" y1="49.9814883%" x2="100%" y2="49.9814883%" id="linearGradient-1">
            <stop stop-color="#FFB600" offset="0%"></stop>
            <stop stop-color="#FF9100" offset="100%"></stop>
        </linearGradient>
        <linearGradient x1="1.78666548%" y1="50%" x2="100%" y2="50%" id="linearGradient-2">
            <stop stop-color="#C49330" offset="0%"></stop>
            <stop stop-color="#EAAB37" offset="100%"></stop>
        </linearGradient>
        <path d="M57.5551301,64.9160839 L32.5639174,64.9160839 C30.0858858,64.9160839 27.9241986,66.6804404 27.3969579,69.1398463 L22.5463427,91.9160839 L67.5463427,91.9160839 L62.6957276,69.1398463 C62.1948489,66.6804404 60.0595238,64.9160839 57.5551301,64.9160839 L57.5551301,64.9160839 Z" id="path-3"></path>
        <path d="M102.55513,64.9160839 L77.5639174,64.9160839 C75.0858858,64.9160839 72.9241986,66.6804404 72.3969579,69.1398463 L67.5463427,91.9160839 L112.546343,91.9160839 L107.695728,69.1398463 C107.194849,66.6804404 105.033162,64.9160839 102.55513,64.9160839 Z" id="path-4"></path>
    </defs>
    <g id="Page-1" stroke="none" stroke-width="1" fill="none" fill-rule="evenodd">
        <g id="lion_home" transform="translate(-896.000000, -399.000000)" fill-rule="nonzero">
            <g id="gold" transform="translate(896.000000, 399.000000)">
                <path d="M32.5463427,36.3503675 C32.5463427,55.9075686 48.4265356,71.9160839 68.0463427,71.9160839 C87.6661499,71.9160839 103.546343,55.9075686 103.546343,36.3503675 C103.546343,16.7931665 87.6661499,0.916083916 68.0463427,0.916083916 C48.4265356,0.916083916 32.5463427,16.7668799 32.5463427,36.3503675 Z" id="Path" fill="url(#linearGradient-1)"></path>
                <circle id="Oval" fill="#FFDA00" cx="67.5463427" cy="36.9160839" r="25"></circle>
                <path d="M82.5463427,43.205424 C82.5463427,39.1546626 80.2881068,35.6368961 76.9671716,33.8247134 C77.8970335,32.4122768 78.4283831,30.7333428 78.4283831,28.9211601 C78.4283831,25.3500941 76.3295521,22.2587235 73.3008592,20.8196372 L73.3008592,15.9160839 L67.9873629,15.9160839 L67.9873629,19.9668453 L65.1977774,19.9668453 L65.1977774,15.9160839 L59.8842811,15.9160839 L59.8842811,19.9668453 L57.5463427,19.9668453 L57.5463427,53.8653225 L59.8842811,53.8653225 L59.8842811,57.9160839 L65.1977774,57.9160839 L65.1977774,53.8653225 L67.9873629,53.8653225 L67.9873629,57.9160839 L73.3008592,57.9160839 L73.3008592,53.7853733 C78.5080856,53.0658301 82.5463427,48.5886727 82.5463427,43.205424 Z M62.8332715,25.2701448 L69.4751419,25.2701448 C71.467703,25.2701448 73.0883194,26.8957793 73.0883194,28.8945103 C73.0883194,30.8932413 71.467703,32.5188758 69.4751419,32.5188758 L62.8332715,32.5188758 L62.8332715,25.2701448 Z M71.9459177,48.5087235 L62.859839,48.5087235 L62.859839,37.9021245 L71.9459177,37.9021245 C74.8683406,37.9021245 77.2328465,40.2739519 77.2328465,43.205424 C77.2328465,46.1102464 74.8417731,48.5087235 71.9459177,48.5087235 Z" id="Shape" fill="#FF9100"></path>
                <g id="Path">
                    <use fill="#FDDB5B" xlink:href="#path-3"></use>
                    <use fill="url(#linearGradient-2)" xlink:href="#path-3"></use>
                </g>
                <path d="M125.335816,94.0484369 L100.388448,94.0484369 C97.9147638,94.0484369 95.7568691,95.7954957 95.2305533,98.2307898 L90.388448,120.783731 L135.309501,120.783731 L130.467395,98.2307898 C129.967395,95.7954957 127.835816,94.0484369 125.335816,94.0484369 L125.335816,94.0484369 Z" id="Path" fill="#FF9100"></path>
                <path d="M80.4410796,94.0484369 L55.4937112,94.0484369 C53.020027,94.0484369 50.8621322,95.7954957 50.3358164,98.2307898 L45.4937112,120.783731 L90.4147638,120.783731 L85.5726585,98.2307898 C85.0726585,95.7954957 82.9147638,94.0484369 80.4410796,94.0484369 Z" id="Path" fill="#FF9100"></path>
                <path d="M35.520027,94.0484369 L10.5726585,94.0484369 C8.09897432,94.0484369 5.94107958,95.7954957 5.41476379,98.2307898 L0.598974319,120.810202 L45.520027,120.810202 L40.6779217,98.2572604 C40.1516059,95.7954957 37.9937112,94.0484369 35.520027,94.0484369 L35.520027,94.0484369 Z" id="Path" fill="#FF9100"></path>
                <g id="Path">
                    <use fill="#FDDB5B" xlink:href="#path-4"></use>
                    <use fill="url(#linearGradient-2)" xlink:href="#path-4"></use>
                </g>
                <g id="Group" transform="translate(4.546343, 4.916084)" fill="#FFDA00">
                    <g transform="translate(104.858326, 0.000000)" id="Path">
                        <polygon transform="translate(14.397470, 32.674001) rotate(90.000000) translate(-14.397470, -32.674001) " points="11.3955025 26.5748293 17.399437 26.5748293 17.399437 38.7731723 11.3955025 38.7731723"></polygon>
                        <polygon transform="translate(6.859961, 6.206112) rotate(53.004102) translate(-6.859961, -6.206112) " points="3.82446286 0.0415555962 9.79373253 0.0907708788 9.89545876 12.3706675 3.92618909 12.3214522"></polygon>
                    </g>
                    <polygon id="Path" transform="translate(111.734411, 59.187885) rotate(-53.004102) translate(-111.734411, -59.187885) " points="108.800639 53.0725438 114.769909 53.0233285 114.668183 65.3032252 108.698913 65.3524405"></polygon>
                    <g transform="translate(0.000000, 29.483607)" id="Path">
                        <polygon transform="translate(6.152600, 3.190394) rotate(-90.000000) translate(-6.152600, -3.190394) " points="3.15063279 -2.90883175 9.15456721 -2.90883175 9.15456721 9.28962028 3.15063279 9.28962028"></polygon>
                        <polygon transform="translate(13.751682, 29.618615) rotate(-126.995898) translate(-13.751682, -29.618615) " points="10.7161842 23.4540587 16.6854538 23.503274 16.7871801 35.7831706 10.8179104 35.7339554"></polygon>
                    </g>
                    <polygon id="Path" transform="translate(13.735558, 6.196570) rotate(126.995898) translate(-13.735558, -6.196570) " points="10.8017864 0.0812289116 16.7710561 0.032013629 16.6693299 12.3119103 10.7000602 12.3611256"></polygon>
                </g>
            </g>
        </g>
    </g>
</svg>