<?xml version="1.0" encoding="UTF-8"?>
<svg width="130px" height="157px" viewBox="0 0 130 157" version="1.1" xmlns="http://www.w3.org/2000/svg" xmlns:xlink="http://www.w3.org/1999/xlink">
    <title>1BFDA6BD-CA8E-473B-93E4-FB82322A5882</title>
    <defs>
        <linearGradient x1="-0.0181124881%" y1="49.9814462%" x2="99.9823642%" y2="49.9814462%" id="linearGradient-1">
            <stop stop-color="#FFB600" offset="0%"></stop>
            <stop stop-color="#FF9100" offset="100%"></stop>
        </linearGradient>
        <linearGradient x1="1.78666548%" y1="50%" x2="100%" y2="50%" id="linearGradient-2">
            <stop stop-color="#C49330" offset="0%"></stop>
            <stop stop-color="#EAAB37" offset="100%"></stop>
        </linearGradient>
        <path d="M109.751521,150.771242 L22.5759643,150.771242 C15.7318421,150.771242 10.1637427,145.206931 10.1637427,138.367465 L10.1637427,74.1750191 C10.1637427,67.3355531 15.7318421,61.7712418 22.5759643,61.7712418 L109.751521,61.7712418 C116.595643,61.7712418 122.163743,67.3355531 122.163743,74.1750191 L122.163743,138.396445 C122.163743,145.235911 116.624644,150.771242 109.751521,150.771242 Z" id="path-3"></path>
        <filter x="-6.2%" y="-5.6%" width="112.5%" height="115.7%" filterUnits="objectBoundingBox" id="filter-4">
            <feOffset dx="0" dy="2" in="SourceAlpha" result="shadowOffsetOuter1"></feOffset>
            <feGaussianBlur stdDeviation="2" in="shadowOffsetOuter1" result="shadowBlurOuter1"></feGaussianBlur>
            <feColorMatrix values="0 0 0 0 0   0 0 0 0 0   0 0 0 0 0  0 0 0 0.5 0" type="matrix" in="shadowBlurOuter1"></feColorMatrix>
        </filter>
        <linearGradient x1="-0.0460069444%" y1="50.0008658%" x2="100.038194%" y2="50.0008658%" id="linearGradient-5">
            <stop stop-color="#FFB600" offset="0%"></stop>
            <stop stop-color="#FF9100" offset="100%"></stop>
        </linearGradient>
        <linearGradient x1="-0.0351648352%" y1="49.9484649%" x2="100.014286%" y2="49.9484649%" id="linearGradient-6">
            <stop stop-color="#FFB600" offset="0%"></stop>
            <stop stop-color="#FF9100" offset="100%"></stop>
        </linearGradient>
    </defs>
    <g id="Page-1" stroke="none" stroke-width="1" fill="none" fill-rule="evenodd">
        <g id="lion_home" transform="translate(-396.000000, -376.000000)" fill-rule="nonzero">
            <g id="wallet-(1)" transform="translate(396.000000, 376.228758)">
                <path d="M95.1637427,51.2132019 C95.1637427,68.0157709 81.4983471,81.7712418 64.6637427,81.7712418 C47.8291383,81.7712418 34.1637427,68.0447908 34.1637427,51.2132019 C34.1637427,34.3816129 47.8291383,20.7712418 64.6637427,20.7712418 C81.4983471,20.7712418 95.1637427,34.3816129 95.1637427,51.2132019 Z" id="Path" fill="url(#linearGradient-1)"></path>
                <circle id="Oval" fill="#FFDA00" cx="64.6637427" cy="51.2712418" r="21.5"></circle>
                <path d="M76.1637427,56.2227111 C76.1637427,53.0490691 74.3509641,50.2868251 71.7060904,48.8469319 C72.4490324,47.7302801 72.86508,46.4079293 72.86508,44.9974217 C72.86508,42.1764066 71.2008898,39.7667895 68.7640399,38.6207521 L68.7640399,34.7712418 L64.5144113,34.7712418 L64.5144113,37.9448839 L62.2855852,37.9448839 L62.2855852,34.7712418 L58.0359567,34.7712418 L58.0359567,37.9448839 L56.1637427,37.9448839 L56.1637427,64.5975998 L58.0359567,64.5975998 L58.0359567,67.7712418 L62.2855852,67.7712418 L62.2855852,64.5975998 L64.5144113,64.5975998 L64.5144113,67.7712418 L68.7640399,67.7712418 L68.7640399,64.5094431 C72.954233,63.9805027 76.1637427,60.4836194 76.1637427,56.2227111 L76.1637427,56.2227111 Z M60.4430889,42.147021 L65.7328363,42.147021 C67.3375911,42.147021 68.6154515,43.4399863 68.6154515,44.9974217 C68.6154515,46.5842427 67.3078734,47.8478224 65.7328363,47.8478224 L60.4430889,47.8478224 L60.4430889,42.147021 Z M67.6942033,60.3954627 L60.4430889,60.3954627 L60.4430889,52.0499596 L67.6942033,52.0499596 C70.0121825,52.0499596 71.9141142,53.9306363 71.9141142,56.2227111 C71.9141142,58.5147859 70.0121825,60.3954627 67.6942033,60.3954627 L67.6942033,60.3954627 Z" id="Shape" fill="#FF9100"></path>
                <g id="Path">
                    <use fill="black" fill-opacity="1" filter="url(#filter-4)" xlink:href="#path-3"></use>
                    <use fill="url(#linearGradient-2)" xlink:href="#path-3"></use>
                </g>
                <path d="M103.207254,120.771242 L123.219257,120.771242 C125.969444,120.771242 128.163743,118.552264 128.163743,115.836935 L128.163743,97.7055484 C128.163743,94.9610229 125.940187,92.7712418 123.219257,92.7712418 L103.207254,92.7712418 C95.4540653,92.7712418 89.1637427,99.0486141 89.1637427,106.78584 C89.1637427,114.49387 95.4540653,120.771242 103.207254,120.771242 Z" id="Path" fill="#2B2F3C"></path>
                <circle id="Oval" fill="#EAAB37" cx="102.663743" cy="107.271242" r="5.5"></circle>
                <path d="M34.1637427,17.727086 C34.1637427,27.0881249 26.5491594,34.7712418 17.1637427,34.7712418 C7.77832602,34.7712418 0.16374269,27.1175622 0.16374269,17.727086 C0.16374269,8.3366098 7.77832602,0.77124183 17.1637427,0.77124183 C26.5491594,0.77124183 34.1637427,8.36604702 34.1637427,17.727086 Z" id="Path" fill="url(#linearGradient-5)"></path>
                <circle id="Oval" fill="#FFDA00" cx="17.1637427" cy="17.7712418" r="12"></circle>
                <path d="M129.163743,28.7427331 C129.163743,35.8984348 123.335171,41.7712418 116.163743,41.7712418 C108.992314,41.7712418 103.163743,35.9269436 103.163743,28.7427331 C103.163743,21.5585225 108.992314,15.7712418 116.163743,15.7712418 C123.335171,15.7712418 129.163743,21.5585225 129.163743,28.7427331 Z" id="Path" fill="url(#linearGradient-6)"></path>
                <circle id="Oval" fill="#FFDA00" cx="115.663743" cy="28.2712418" r="9.5"></circle>
            </g>
        </g>
    </g>
</svg>